<svg xmlns="http://www.w3.org/2000/svg" xmlns:xlink="http://www.w3.org/1999/xlink" width="500" zoomAndPan="magnify" viewBox="0 0 375 374.999991" height="500" preserveAspectRatio="xMidYMid meet" version="1.0"><defs><g/><clipPath id="f71321b472"><path d="M 64.042969 12 L 309 12 L 309 225 L 64.042969 225 Z M 64.042969 12 " clip-rule="nonzero"/></clipPath><clipPath id="57a4b8f127"><path d="M 255.617188 186.308594 L 308.964844 186.308594 L 308.964844 241.476562 L 255.617188 241.476562 Z M 255.617188 186.308594 " clip-rule="nonzero"/></clipPath></defs><rect x="-37.5" width="450" fill="#ffffff" y="-37.499999" height="449.999989" fill-opacity="1"/><rect x="-37.5" width="450" fill="#372a28" y="-37.499999" height="449.999989" fill-opacity="1"/><g clip-path="url(#f71321b472)"><path fill="#dff8ee" d="M 64.378906 122.878906 C 64.761719 129.140625 136.625 121.03125 145.722656 143.808594 C 154.734375 166.363281 112.207031 206.9375 115.976562 210.261719 C 119.429688 213.308594 147.582031 171.320312 177.339844 174.824219 C 207.535156 178.378906 224.339844 227.003906 231.035156 223.882812 C 237.199219 221.007812 215.78125 183.101562 229.886719 165.589844 C 247.066406 144.261719 306.078125 166.671875 308.449219 159.28125 C 310.804688 151.945312 249.726562 138.996094 242.640625 105.703125 C 235.9375 74.230469 280.554688 39.054688 276.800781 35.429688 C 272.996094 31.753906 236.949219 77.324219 210.273438 69.210938 C 185.519531 61.683594 180.496094 11.464844 174.183594 12.691406 C 167.949219 13.902344 180.226562 61.546875 162.390625 72.707031 C 143.925781 84.261719 103.921875 51.453125 100.503906 56.285156 C 97.570312 60.425781 129.855469 80.382812 126.050781 96.277344 C 121.339844 115.984375 64.042969 117.304688 64.378906 122.878906 " fill-opacity="1" fill-rule="nonzero"/></g><path fill="#a5edda" d="M 126.980469 116.667969 C 126.914062 119.828125 160.28125 117.25 166.789062 131.078125 C 172.867188 143.988281 152.953125 165.777344 155.027344 167.273438 C 156.953125 168.664062 169.101562 146.371094 183.203125 147.183594 C 198.117188 148.039062 207.566406 174.296875 211.082031 172.65625 C 214.285156 171.164062 203.164062 151.480469 210.488281 142.386719 C 219.410156 131.3125 250.050781 142.949219 251.28125 139.109375 C 252.503906 135.304688 220.789062 128.578125 217.109375 111.292969 C 213.632812 94.949219 236.796875 76.683594 234.847656 74.804688 C 232.871094 72.894531 214.15625 96.554688 200.304688 92.34375 C 187.449219 88.433594 184.84375 62.359375 181.566406 62.996094 C 178.328125 63.625 184.703125 88.363281 175.441406 94.15625 C 165.855469 100.160156 145.082031 83.121094 143.308594 85.632812 C 141.757812 87.820312 158.84375 98.839844 156.574219 106.398438 C 153.945312 115.140625 127.039062 113.824219 126.980469 116.667969 " fill-opacity="1" fill-rule="nonzero"/><path fill="#f7931e" d="M 184.132812 94.84375 L 185.039062 87.320312 L 168.570312 85.335938 L 167.660156 92.859375 L 184.132812 94.84375 " fill-opacity="1" fill-rule="nonzero"/><path fill="#f7931e" d="M 135.898438 150.492188 L 129.316406 146.726562 L 121.074219 161.113281 L 127.65625 164.878906 L 135.898438 150.492188 " fill-opacity="1" fill-rule="nonzero"/><path fill="#f7931e" d="M 123.886719 86.695312 L 118.46875 91.996094 L 130.074219 103.84375 L 135.492188 98.539062 L 123.886719 86.695312 " fill-opacity="1" fill-rule="nonzero"/><path fill="#fcdd49" d="M 188.921875 117.941406 L 181.394531 117.035156 L 179.40625 133.496094 L 186.9375 134.402344 L 188.921875 117.941406 " fill-opacity="1" fill-rule="nonzero"/><path fill="#9bbc41" d="M 189.402344 170.007812 L 185.507812 163.507812 L 171.273438 172.019531 L 175.164062 178.523438 L 189.402344 170.007812 " fill-opacity="1" fill-rule="nonzero"/><path fill="#9bbc41" d="M 151.835938 113.933594 L 150.601562 121.410156 L 166.972656 124.105469 L 168.203125 116.625 L 151.835938 113.933594 " fill-opacity="1" fill-rule="nonzero"/><path fill="#9bbc41" d="M 206.832031 104.375 L 200.667969 99.964844 L 191.003906 113.441406 L 197.167969 117.855469 L 206.832031 104.375 " fill-opacity="1" fill-rule="nonzero"/><path fill="#9bbc41" d="M 180.4375 56.113281 L 172.855469 56.003906 L 172.613281 72.582031 L 180.199219 72.691406 L 180.4375 56.113281 " fill-opacity="1" fill-rule="nonzero"/><path fill="#fcdd49" d="M 194.160156 65.640625 L 201.6875 66.546875 L 203.675781 50.085938 L 196.144531 49.179688 L 194.160156 65.640625 " fill-opacity="1" fill-rule="nonzero"/><path fill="#fcdd49" d="M 147.320312 54.804688 L 154.660156 52.890625 L 150.472656 36.851562 L 143.136719 38.761719 L 147.320312 54.804688 " fill-opacity="1" fill-rule="nonzero"/><path fill="#fcdd49" d="M 135.9375 121.769531 L 135.222656 114.222656 L 118.707031 115.777344 L 119.417969 123.324219 L 135.9375 121.769531 " fill-opacity="1" fill-rule="nonzero"/><path fill="#f7931e" d="M 203.707031 145.289062 L 211.292969 145.289062 L 211.292969 128.710938 L 203.707031 128.710938 L 203.707031 145.289062 " fill-opacity="1" fill-rule="nonzero"/><g clip-path="url(#57a4b8f127)"><path fill="#333333" d="M 295.199219 241.476562 C 282.894531 241.480469 268.363281 223.765625 255.828125 193.222656 C 255.339844 192.027344 255.910156 190.664062 257.105469 190.175781 C 258.300781 189.6875 259.664062 190.257812 260.152344 191.449219 C 271.996094 220.316406 286.640625 238.511719 296.59375 236.6875 C 300.023438 236.0625 303.320312 232.976562 304.105469 229.65625 C 305.539062 223.59375 298.652344 214.914062 284.714844 205.222656 C 272.96875 197.050781 260.515625 191.070312 259.992188 190.820312 C 258.828125 190.261719 258.332031 188.871094 258.890625 187.707031 C 259.445312 186.542969 260.84375 186.050781 262.003906 186.609375 C 267.253906 189.117188 313.15625 211.660156 308.652344 230.730469 C 307.4375 235.882812 302.714844 240.316406 297.429688 241.277344 C 296.695312 241.414062 295.953125 241.476562 295.199219 241.476562 " fill-opacity="1" fill-rule="nonzero"/></g><path fill="#782684" d="M 188.183594 139.351562 L 249.347656 204.449219 L 274.890625 180.480469 L 213.730469 115.382812 L 188.183594 139.351562 " fill-opacity="1" fill-rule="nonzero"/><path fill="#a84fa2" d="M 197.125 130.960938 L 237.101562 173.511719 C 245.710938 182.675781 260.125 183.128906 269.296875 174.523438 L 213.730469 115.382812 L 197.125 130.960938 " fill-opacity="1" fill-rule="nonzero"/><path fill="#669224" d="M 205.382812 123.210938 L 221.5625 123.722656 L 213.730469 115.382812 Z M 205.382812 123.210938 " fill-opacity="1" fill-rule="nonzero"/><path fill="#8bab3e" d="M 188.183594 139.351562 L 194.417969 145.988281 L 243.949219 147.546875 L 235.476562 138.527344 L 203.277344 137.515625 L 190.566406 137.113281 L 188.183594 139.351562 " fill-opacity="1" fill-rule="nonzero"/><path fill="#8bab3e" d="M 208.332031 160.796875 L 216.804688 169.816406 L 266.335938 171.375 L 257.863281 162.355469 L 208.332031 160.796875 " fill-opacity="1" fill-rule="nonzero"/><path fill="#8bab3e" d="M 230.71875 184.621094 L 239.191406 193.644531 L 260.160156 194.300781 L 269.1875 185.832031 L 230.71875 184.621094 " fill-opacity="1" fill-rule="nonzero"/><path fill="#669224" d="M 205.382812 123.210938 L 221.5625 123.722656 L 213.730469 115.382812 Z M 205.382812 123.210938 " fill-opacity="1" fill-rule="nonzero"/><path fill="#669224" d="M 203.277344 137.515625 L 211.753906 146.535156 L 243.949219 147.546875 L 235.476562 138.527344 L 203.277344 137.515625 " fill-opacity="1" fill-rule="nonzero"/><path fill="#669224" d="M 225.667969 161.339844 L 234.140625 170.359375 L 266.335938 171.375 L 257.863281 162.355469 L 225.667969 161.339844 " fill-opacity="1" fill-rule="nonzero"/><path fill="#9bbc41" d="M 205.382812 123.210938 L 221.5625 123.722656 L 213.730469 115.382812 Z M 205.382812 123.210938 " fill-opacity="1" fill-rule="nonzero"/><path fill="#9bbc41" d="M 203.277344 137.515625 L 211.753906 146.535156 L 243.949219 147.546875 L 235.476562 138.527344 L 203.277344 137.515625 " fill-opacity="1" fill-rule="nonzero"/><path fill="#9bbc41" d="M 225.667969 161.339844 L 234.140625 170.359375 L 266.335938 171.375 L 257.863281 162.355469 L 225.667969 161.339844 " fill-opacity="1" fill-rule="nonzero"/><path fill="#fcdd49" d="M 257.523438 82.757812 L 259.4375 90.089844 L 275.492188 85.90625 L 273.578125 78.570312 L 257.523438 82.757812 " fill-opacity="1" fill-rule="nonzero"/><path fill="#9bbc41" d="M 229.234375 112.085938 L 229.945312 119.632812 L 246.460938 118.078125 L 245.75 110.53125 L 229.234375 112.085938 " fill-opacity="1" fill-rule="nonzero"/><g fill="#fff4ea" fill-opacity="1"><g transform="translate(88.995467, 267.806262)"><g><path d="M 1.265625 -1.9375 C 2.503906 -1.9375 3.273438 -2.039062 3.578125 -2.25 C 3.890625 -2.46875 4.070312 -2.703125 4.125 -2.953125 C 4.1875 -3.203125 4.21875 -3.5 4.21875 -3.84375 L 4.21875 -22.515625 C 4.21875 -23.273438 4.085938 -23.75 3.828125 -23.9375 C 3.359375 -24.269531 2.503906 -24.4375 1.265625 -24.4375 L 1.265625 -26.375 L 10.703125 -26.375 C 18.273438 -26.375 22.828125 -23.890625 24.359375 -18.921875 C 24.828125 -17.367188 25.0625 -15.703125 25.0625 -13.921875 C 25.0625 -12.148438 24.882812 -10.59375 24.53125 -9.25 C 24.1875 -7.914062 23.695312 -6.734375 23.0625 -5.703125 C 21.851562 -3.742188 20.195312 -2.300781 18.09375 -1.375 C 15.988281 -0.457031 13.644531 0 11.0625 0 L 1.265625 0 Z M 11.4375 -1.953125 C 17.46875 -1.953125 20.484375 -5.878906 20.484375 -13.734375 C 20.484375 -17.078125 19.648438 -19.722656 17.984375 -21.671875 C 16.316406 -23.628906 13.835938 -24.609375 10.546875 -24.609375 L 8.171875 -24.609375 L 8.171875 -1.953125 Z M 11.4375 -1.953125 "/></g></g></g><g fill="#fff4ea" fill-opacity="1"><g transform="translate(114.712972, 267.806262)"><g><path d="M 5.921875 -21.421875 C 5.160156 -21.421875 4.515625 -21.675781 3.984375 -22.1875 C 3.453125 -22.695312 3.1875 -23.320312 3.1875 -24.0625 C 3.1875 -24.8125 3.453125 -25.445312 3.984375 -25.96875 C 4.523438 -26.488281 5.171875 -26.75 5.921875 -26.75 C 6.671875 -26.75 7.316406 -26.488281 7.859375 -25.96875 C 8.398438 -25.445312 8.671875 -24.8125 8.671875 -24.0625 C 8.671875 -23.320312 8.398438 -22.695312 7.859375 -22.1875 C 7.328125 -21.675781 6.679688 -21.421875 5.921875 -21.421875 Z M 1.4375 -1.9375 C 2.53125 -1.9375 3.210938 -2.035156 3.484375 -2.234375 C 3.765625 -2.441406 3.929688 -2.660156 3.984375 -2.890625 C 4.046875 -3.128906 4.078125 -3.425781 4.078125 -3.78125 L 4.078125 -13.46875 C 4.078125 -14.3125 4.003906 -14.859375 3.859375 -15.109375 C 3.710938 -15.367188 3.316406 -15.5 2.671875 -15.5 L 1.40625 -15.5 L 1.40625 -17.4375 C 2.550781 -17.4375 3.453125 -17.519531 4.109375 -17.6875 C 4.765625 -17.863281 5.226562 -17.988281 5.5 -18.0625 C 5.769531 -18.132812 6.0625 -18.171875 6.375 -18.171875 C 6.988281 -18.171875 7.390625 -17.992188 7.578125 -17.640625 C 7.773438 -17.285156 7.875 -16.710938 7.875 -15.921875 L 7.875 -3.78125 C 7.875 -3.039062 7.992188 -2.578125 8.234375 -2.390625 C 8.628906 -2.085938 9.382812 -1.9375 10.5 -1.9375 L 10.5 0 L 1.4375 0 Z M 1.4375 -1.9375 "/></g></g></g><g fill="#fff4ea" fill-opacity="1"><g transform="translate(125.770321, 267.806262)"><g><path d="M 2.328125 -14.015625 C 2.046875 -14.722656 1.75 -15.210938 1.4375 -15.484375 C 1.132812 -15.753906 0.59375 -15.890625 -0.1875 -15.890625 L -0.1875 -17.828125 L 8.6875 -17.828125 L 8.6875 -15.890625 C 7.457031 -15.890625 6.710938 -15.78125 6.453125 -15.5625 C 6.203125 -15.34375 6.078125 -15.113281 6.078125 -14.875 C 6.085938 -14.644531 6.160156 -14.359375 6.296875 -14.015625 L 9.703125 -4.453125 L 14.234375 -17.828125 L 16.78125 -17.828125 L 21.21875 -4.0625 L 24.5625 -14.015625 C 24.800781 -14.691406 24.71875 -15.171875 24.3125 -15.453125 C 23.90625 -15.742188 23.046875 -15.890625 21.734375 -15.890625 L 21.734375 -17.828125 L 29.75 -17.828125 L 29.75 -15.890625 C 28.96875 -15.890625 28.375 -15.738281 27.96875 -15.4375 C 27.570312 -15.132812 27.257812 -14.660156 27.03125 -14.015625 L 22.171875 0 L 19.203125 0 L 14.8125 -12.046875 L 10.734375 0 L 7.765625 0 Z M 2.328125 -14.015625 "/></g></g></g><g fill="#fff4ea" fill-opacity="1"><g transform="translate(154.54642, 267.806262)"><g><path d="M 16.78125 -4.203125 C 16.78125 -2.804688 17.054688 -2.109375 17.609375 -2.109375 C 18.140625 -2.109375 18.523438 -2.285156 18.765625 -2.640625 C 19.015625 -3.003906 19.140625 -3.65625 19.140625 -4.59375 L 20.984375 -4.59375 C 20.992188 -4.4375 21 -4.195312 21 -3.875 C 21 -2.8125 20.738281 -1.894531 20.21875 -1.125 C 19.570312 -0.132812 18.546875 0.359375 17.140625 0.359375 C 16.222656 0.359375 15.441406 0.0976562 14.796875 -0.421875 C 14.148438 -0.941406 13.707031 -1.625 13.46875 -2.46875 C 11.769531 -0.582031 9.617188 0.359375 7.015625 0.359375 C 5.585938 0.359375 4.34375 -0.0546875 3.28125 -0.890625 C 2.21875 -1.734375 1.6875 -2.90625 1.6875 -4.40625 C 1.6875 -7.007812 3.609375 -8.929688 7.453125 -10.171875 C 9.890625 -10.953125 11.347656 -11.488281 11.828125 -11.78125 C 12.304688 -12.082031 12.617188 -12.390625 12.765625 -12.703125 C 12.910156 -13.015625 12.984375 -13.363281 12.984375 -13.75 C 12.984375 -14.4375 12.644531 -15.007812 11.96875 -15.46875 C 11.289062 -15.9375 10.40625 -16.171875 9.3125 -16.171875 C 8.226562 -16.171875 7.269531 -15.878906 6.4375 -15.296875 C 7.019531 -14.859375 7.3125 -14.300781 7.3125 -13.625 C 7.3125 -12.945312 7.082031 -12.398438 6.625 -11.984375 C 6.175781 -11.578125 5.632812 -11.375 5 -11.375 C 4.363281 -11.375 3.835938 -11.566406 3.421875 -11.953125 C 3.003906 -12.335938 2.796875 -12.878906 2.796875 -13.578125 C 2.796875 -14.941406 3.484375 -16.046875 4.859375 -16.890625 C 6.242188 -17.742188 7.929688 -18.171875 9.921875 -18.171875 C 13.453125 -18.171875 15.613281 -17.023438 16.40625 -14.734375 C 16.65625 -13.972656 16.78125 -13.09375 16.78125 -12.09375 Z M 9.03125 -8.578125 C 8 -8.128906 7.222656 -7.554688 6.703125 -6.859375 C 6.191406 -6.160156 5.9375 -5.398438 5.9375 -4.578125 C 5.9375 -3.765625 6.160156 -3.144531 6.609375 -2.71875 C 7.054688 -2.300781 7.613281 -2.09375 8.28125 -2.09375 C 9.632812 -2.09375 10.753906 -2.566406 11.640625 -3.515625 C 12.535156 -4.472656 12.984375 -5.8125 12.984375 -7.53125 L 12.984375 -10.234375 C 12.234375 -9.847656 11.441406 -9.492188 10.609375 -9.171875 C 9.773438 -8.859375 9.25 -8.660156 9.03125 -8.578125 Z M 9.03125 -8.578125 "/></g></g></g><g fill="#fff4ea" fill-opacity="1"><g transform="translate(174.427988, 267.806262)"><g><path d="M 1.234375 -1.9375 C 2.253906 -1.9375 2.953125 -2.078125 3.328125 -2.359375 C 3.710938 -2.640625 3.90625 -3.125 3.90625 -3.8125 L 3.90625 -22.859375 C 3.90625 -23.703125 3.832031 -24.25 3.6875 -24.5 C 3.539062 -24.757812 3.140625 -24.890625 2.484375 -24.890625 L 1.0625 -24.890625 L 1.0625 -26.828125 C 2.238281 -26.828125 3.160156 -26.910156 3.828125 -27.078125 C 4.492188 -27.242188 4.972656 -27.363281 5.265625 -27.4375 C 5.554688 -27.519531 5.859375 -27.5625 6.171875 -27.5625 C 6.773438 -27.5625 7.179688 -27.382812 7.390625 -27.03125 C 7.597656 -26.6875 7.703125 -26.113281 7.703125 -25.3125 L 7.703125 -3.8125 C 7.703125 -3.082031 7.851562 -2.585938 8.15625 -2.328125 C 8.46875 -2.066406 9.195312 -1.9375 10.34375 -1.9375 L 10.34375 0 L 1.234375 0 Z M 1.234375 -1.9375 "/></g></g></g><g fill="#fff4ea" fill-opacity="1"><g transform="translate(185.309556, 267.806262)"><g><path d="M 5.921875 -21.421875 C 5.160156 -21.421875 4.515625 -21.675781 3.984375 -22.1875 C 3.453125 -22.695312 3.1875 -23.320312 3.1875 -24.0625 C 3.1875 -24.8125 3.453125 -25.445312 3.984375 -25.96875 C 4.523438 -26.488281 5.171875 -26.75 5.921875 -26.75 C 6.671875 -26.75 7.316406 -26.488281 7.859375 -25.96875 C 8.398438 -25.445312 8.671875 -24.8125 8.671875 -24.0625 C 8.671875 -23.320312 8.398438 -22.695312 7.859375 -22.1875 C 7.328125 -21.675781 6.679688 -21.421875 5.921875 -21.421875 Z M 1.4375 -1.9375 C 2.53125 -1.9375 3.210938 -2.035156 3.484375 -2.234375 C 3.765625 -2.441406 3.929688 -2.660156 3.984375 -2.890625 C 4.046875 -3.128906 4.078125 -3.425781 4.078125 -3.78125 L 4.078125 -13.46875 C 4.078125 -14.3125 4.003906 -14.859375 3.859375 -15.109375 C 3.710938 -15.367188 3.316406 -15.5 2.671875 -15.5 L 1.40625 -15.5 L 1.40625 -17.4375 C 2.550781 -17.4375 3.453125 -17.519531 4.109375 -17.6875 C 4.765625 -17.863281 5.226562 -17.988281 5.5 -18.0625 C 5.769531 -18.132812 6.0625 -18.171875 6.375 -18.171875 C 6.988281 -18.171875 7.390625 -17.992188 7.578125 -17.640625 C 7.773438 -17.285156 7.875 -16.710938 7.875 -15.921875 L 7.875 -3.78125 C 7.875 -3.039062 7.992188 -2.578125 8.234375 -2.390625 C 8.628906 -2.085938 9.382812 -1.9375 10.5 -1.9375 L 10.5 0 L 1.4375 0 Z M 1.4375 -1.9375 "/></g></g></g><g fill="#fff4ea" fill-opacity="1"><g transform="translate(196.366905, 267.806262)"><g/></g></g><g fill="#fff4ea" fill-opacity="1"><g transform="translate(207.65277, 267.806262)"><g><path d="M 1.25 -1.9375 C 2.382812 -1.9375 3.113281 -2.039062 3.4375 -2.25 C 3.769531 -2.457031 3.984375 -2.679688 4.078125 -2.921875 C 4.171875 -3.160156 4.21875 -3.457031 4.21875 -3.8125 L 4.21875 -22.515625 C 4.21875 -23.242188 4 -23.742188 3.5625 -24.015625 C 3.132812 -24.296875 2.367188 -24.4375 1.265625 -24.4375 L 1.265625 -26.375 L 20.390625 -26.375 L 21.078125 -19.984375 L 18.53125 -19.96875 L 18.046875 -21.953125 C 17.816406 -22.898438 17.578125 -23.5 17.328125 -23.75 C 16.898438 -24.1875 16.171875 -24.40625 15.140625 -24.40625 L 8.171875 -24.40625 L 8.171875 -14.171875 L 11.578125 -14.171875 C 12.910156 -14.171875 13.722656 -14.257812 14.015625 -14.4375 C 14.316406 -14.613281 14.519531 -14.863281 14.625 -15.1875 C 14.738281 -15.519531 14.796875 -15.992188 14.796875 -16.609375 L 17.09375 -16.609375 L 17.09375 -9.8125 L 14.796875 -9.8125 C 14.796875 -10.894531 14.582031 -11.566406 14.15625 -11.828125 C 13.726562 -12.097656 12.867188 -12.234375 11.578125 -12.234375 L 8.171875 -12.234375 L 8.171875 -1.9375 L 15.640625 -1.9375 C 17.003906 -1.9375 17.910156 -2.394531 18.359375 -3.3125 C 18.492188 -3.59375 18.632812 -3.882812 18.78125 -4.1875 L 19.5625 -6.34375 L 22.109375 -6.34375 L 21.421875 0 L 1.25 0 Z M 1.25 -1.9375 "/></g></g></g><g fill="#fff4ea" fill-opacity="1"><g transform="translate(230.434728, 267.806262)"><g><path d="M 1.234375 -1.9375 C 2.253906 -1.9375 2.953125 -2.078125 3.328125 -2.359375 C 3.710938 -2.640625 3.90625 -3.125 3.90625 -3.8125 L 3.90625 -22.859375 C 3.90625 -23.703125 3.832031 -24.25 3.6875 -24.5 C 3.539062 -24.757812 3.140625 -24.890625 2.484375 -24.890625 L 1.0625 -24.890625 L 1.0625 -26.828125 C 2.238281 -26.828125 3.160156 -26.910156 3.828125 -27.078125 C 4.492188 -27.242188 4.972656 -27.363281 5.265625 -27.4375 C 5.554688 -27.519531 5.859375 -27.5625 6.171875 -27.5625 C 6.773438 -27.5625 7.179688 -27.382812 7.390625 -27.03125 C 7.597656 -26.6875 7.703125 -26.113281 7.703125 -25.3125 L 7.703125 -3.8125 C 7.703125 -3.082031 7.851562 -2.585938 8.15625 -2.328125 C 8.46875 -2.066406 9.195312 -1.9375 10.34375 -1.9375 L 10.34375 0 L 1.234375 0 Z M 1.234375 -1.9375 "/></g></g></g><g fill="#fff4ea" fill-opacity="1"><g transform="translate(241.316296, 267.806262)"><g><path d="M 5.921875 -21.421875 C 5.160156 -21.421875 4.515625 -21.675781 3.984375 -22.1875 C 3.453125 -22.695312 3.1875 -23.320312 3.1875 -24.0625 C 3.1875 -24.8125 3.453125 -25.445312 3.984375 -25.96875 C 4.523438 -26.488281 5.171875 -26.75 5.921875 -26.75 C 6.671875 -26.75 7.316406 -26.488281 7.859375 -25.96875 C 8.398438 -25.445312 8.671875 -24.8125 8.671875 -24.0625 C 8.671875 -23.320312 8.398438 -22.695312 7.859375 -22.1875 C 7.328125 -21.675781 6.679688 -21.421875 5.921875 -21.421875 Z M 1.4375 -1.9375 C 2.53125 -1.9375 3.210938 -2.035156 3.484375 -2.234375 C 3.765625 -2.441406 3.929688 -2.660156 3.984375 -2.890625 C 4.046875 -3.128906 4.078125 -3.425781 4.078125 -3.78125 L 4.078125 -13.46875 C 4.078125 -14.3125 4.003906 -14.859375 3.859375 -15.109375 C 3.710938 -15.367188 3.316406 -15.5 2.671875 -15.5 L 1.40625 -15.5 L 1.40625 -17.4375 C 2.550781 -17.4375 3.453125 -17.519531 4.109375 -17.6875 C 4.765625 -17.863281 5.226562 -17.988281 5.5 -18.0625 C 5.769531 -18.132812 6.0625 -18.171875 6.375 -18.171875 C 6.988281 -18.171875 7.390625 -17.992188 7.578125 -17.640625 C 7.773438 -17.285156 7.875 -16.710938 7.875 -15.921875 L 7.875 -3.78125 C 7.875 -3.039062 7.992188 -2.578125 8.234375 -2.390625 C 8.628906 -2.085938 9.382812 -1.9375 10.5 -1.9375 L 10.5 0 L 1.4375 0 Z M 1.4375 -1.9375 "/></g></g></g><g fill="#fff4ea" fill-opacity="1"><g transform="translate(252.373646, 267.806262)"><g><path d="M 8.765625 0.359375 C 5.078125 0.359375 3.234375 -1.691406 3.234375 -5.796875 L 3.234375 -14.59375 C 3.234375 -15.050781 3.175781 -15.351562 3.0625 -15.5 C 2.957031 -15.644531 2.722656 -15.71875 2.359375 -15.71875 L 0.921875 -15.71875 L 0.921875 -17.828125 L 1.5625 -17.828125 C 2.457031 -17.828125 3.113281 -18.109375 3.53125 -18.671875 C 3.945312 -19.234375 4.171875 -20.160156 4.203125 -21.453125 L 4.21875 -23.015625 L 7.03125 -23.015625 L 7.03125 -17.828125 L 12.421875 -17.828125 L 12.421875 -15.71875 L 7.03125 -15.71875 L 7.03125 -5.859375 C 7.03125 -3.671875 7.535156 -2.367188 8.546875 -1.953125 C 8.828125 -1.835938 9.109375 -1.78125 9.390625 -1.78125 C 10.617188 -1.78125 11.421875 -2.789062 11.796875 -4.8125 L 13.828125 -4.8125 C 13.710938 -2.414062 12.710938 -0.820312 10.828125 -0.03125 C 10.222656 0.226562 9.535156 0.359375 8.765625 0.359375 Z M 8.765625 0.359375 "/></g></g></g><g fill="#fff4ea" fill-opacity="1"><g transform="translate(266.366542, 267.806262)"><g><path d="M 17.984375 -8.109375 L 5.78125 -8.109375 C 5.78125 -6.085938 6.257812 -4.523438 7.21875 -3.421875 C 8.175781 -2.328125 9.359375 -1.78125 10.765625 -1.78125 C 12.648438 -1.78125 14 -2.554688 14.8125 -4.109375 L 17.4375 -4.125 C 17.164062 -2.875 16.394531 -1.8125 15.125 -0.9375 C 13.851562 -0.0703125 12.140625 0.359375 9.984375 0.359375 C 7.828125 0.359375 5.960938 -0.3125 4.390625 -1.65625 C 2.515625 -3.257812 1.578125 -5.519531 1.578125 -8.4375 C 1.578125 -11.351562 2.320312 -13.703125 3.8125 -15.484375 C 5.3125 -17.273438 7.457031 -18.171875 10.25 -18.171875 C 13.914062 -18.171875 16.289062 -16.695312 17.375 -13.75 C 17.800781 -12.5625 18.015625 -11.441406 18.015625 -10.390625 C 18.015625 -9.335938 18.003906 -8.578125 17.984375 -8.109375 Z M 13.921875 -10.734375 C 13.921875 -14.328125 12.703125 -16.125 10.265625 -16.125 C 8.890625 -16.125 7.816406 -15.585938 7.046875 -14.515625 C 6.285156 -13.453125 5.867188 -11.976562 5.796875 -10.09375 L 13.90625 -10.09375 C 13.914062 -10.3125 13.921875 -10.523438 13.921875 -10.734375 Z M 13.921875 -10.734375 "/></g></g></g><g fill="#fff4ea" fill-opacity="1"><g transform="translate(103.046247, 318.056259)"><g><path d="M 1.265625 -1.9375 C 2.503906 -1.9375 3.273438 -2.039062 3.578125 -2.25 C 3.890625 -2.46875 4.070312 -2.703125 4.125 -2.953125 C 4.1875 -3.203125 4.21875 -3.5 4.21875 -3.84375 L 4.21875 -22.515625 C 4.21875 -23.242188 4 -23.742188 3.5625 -24.015625 C 3.132812 -24.296875 2.367188 -24.4375 1.265625 -24.4375 L 1.265625 -26.375 L 20.046875 -26.375 L 20.71875 -19.984375 L 18.171875 -19.96875 L 17.703125 -21.953125 C 17.460938 -22.898438 17.222656 -23.5 16.984375 -23.75 C 16.546875 -24.1875 15.8125 -24.40625 14.78125 -24.40625 L 8.171875 -24.40625 L 8.171875 -14.171875 L 11.40625 -14.171875 C 12.726562 -14.171875 13.539062 -14.257812 13.84375 -14.4375 C 14.144531 -14.613281 14.347656 -14.863281 14.453125 -15.1875 C 14.566406 -15.519531 14.625 -15.992188 14.625 -16.609375 L 16.90625 -16.609375 L 16.90625 -9.8125 L 14.625 -9.8125 C 14.625 -10.894531 14.410156 -11.566406 13.984375 -11.828125 C 13.554688 -12.097656 12.695312 -12.234375 11.40625 -12.234375 L 8.171875 -12.234375 L 8.171875 -4.734375 C 8.171875 -4.128906 8.210938 -3.644531 8.296875 -3.28125 C 8.390625 -2.925781 8.6875 -2.613281 9.1875 -2.34375 C 9.6875 -2.070312 11.1875 -1.9375 13.6875 -1.9375 L 13.6875 0 L 1.265625 0 Z M 1.265625 -1.9375 "/></g></g></g><g fill="#fff4ea" fill-opacity="1"><g transform="translate(124.685627, 318.056259)"><g><path d="M 5.921875 -21.421875 C 5.160156 -21.421875 4.515625 -21.675781 3.984375 -22.1875 C 3.453125 -22.695312 3.1875 -23.320312 3.1875 -24.0625 C 3.1875 -24.8125 3.453125 -25.445312 3.984375 -25.96875 C 4.523438 -26.488281 5.171875 -26.75 5.921875 -26.75 C 6.671875 -26.75 7.316406 -26.488281 7.859375 -25.96875 C 8.398438 -25.445312 8.671875 -24.8125 8.671875 -24.0625 C 8.671875 -23.320312 8.398438 -22.695312 7.859375 -22.1875 C 7.328125 -21.675781 6.679688 -21.421875 5.921875 -21.421875 Z M 1.4375 -1.9375 C 2.53125 -1.9375 3.210938 -2.035156 3.484375 -2.234375 C 3.765625 -2.441406 3.929688 -2.660156 3.984375 -2.890625 C 4.046875 -3.128906 4.078125 -3.425781 4.078125 -3.78125 L 4.078125 -13.46875 C 4.078125 -14.3125 4.003906 -14.859375 3.859375 -15.109375 C 3.710938 -15.367188 3.316406 -15.5 2.671875 -15.5 L 1.40625 -15.5 L 1.40625 -17.4375 C 2.550781 -17.4375 3.453125 -17.519531 4.109375 -17.6875 C 4.765625 -17.863281 5.226562 -17.988281 5.5 -18.0625 C 5.769531 -18.132812 6.0625 -18.171875 6.375 -18.171875 C 6.988281 -18.171875 7.390625 -17.992188 7.578125 -17.640625 C 7.773438 -17.285156 7.875 -16.710938 7.875 -15.921875 L 7.875 -3.78125 C 7.875 -3.039062 7.992188 -2.578125 8.234375 -2.390625 C 8.628906 -2.085938 9.382812 -1.9375 10.5 -1.9375 L 10.5 0 L 1.4375 0 Z M 1.4375 -1.9375 "/></g></g></g><g fill="#fff4ea" fill-opacity="1"><g transform="translate(135.742977, 318.056259)"><g><path d="M 1.4375 -1.9375 C 2.445312 -1.9375 3.082031 -2.035156 3.34375 -2.234375 C 3.601562 -2.441406 3.757812 -2.660156 3.8125 -2.890625 C 3.863281 -3.128906 3.890625 -3.425781 3.890625 -3.78125 L 3.890625 -13.46875 C 3.890625 -14.3125 3.816406 -14.859375 3.671875 -15.109375 C 3.523438 -15.367188 3.128906 -15.5 2.484375 -15.5 L 1.40625 -15.5 L 1.40625 -17.4375 C 2.519531 -17.4375 3.382812 -17.519531 4 -17.6875 C 4.613281 -17.863281 5.050781 -17.988281 5.3125 -18.0625 C 5.582031 -18.132812 5.867188 -18.171875 6.171875 -18.171875 C 6.765625 -18.171875 7.164062 -17.992188 7.375 -17.640625 C 7.582031 -17.296875 7.6875 -16.722656 7.6875 -15.921875 L 7.6875 -15.578125 C 8.6875 -16.753906 9.828125 -17.550781 11.109375 -17.96875 C 11.566406 -18.101562 12.023438 -18.171875 12.484375 -18.171875 C 13.359375 -18.171875 14.039062 -17.921875 14.53125 -17.421875 C 15.019531 -16.921875 15.265625 -16.300781 15.265625 -15.5625 C 15.265625 -14.820312 15.03125 -14.21875 14.5625 -13.75 C 14.09375 -13.28125 13.519531 -13.046875 12.84375 -13.046875 C 12.1875 -13.046875 11.644531 -13.28125 11.21875 -13.75 C 10.789062 -14.21875 10.601562 -14.800781 10.65625 -15.5 C 10.175781 -15.4375 9.660156 -15.21875 9.109375 -14.84375 C 8.566406 -14.476562 8.09375 -13.976562 7.6875 -13.34375 L 7.6875 -3.9375 C 7.6875 -3.488281 7.722656 -3.132812 7.796875 -2.875 C 7.867188 -2.613281 8.070312 -2.390625 8.40625 -2.203125 C 8.738281 -2.023438 9.742188 -1.9375 11.421875 -1.9375 L 11.421875 0 L 1.4375 0 Z M 1.4375 -1.9375 "/></g></g></g><g fill="#fff4ea" fill-opacity="1"><g transform="translate(150.79056, 318.056259)"><g><path d="M 17.984375 -8.109375 L 5.78125 -8.109375 C 5.78125 -6.085938 6.257812 -4.523438 7.21875 -3.421875 C 8.175781 -2.328125 9.359375 -1.78125 10.765625 -1.78125 C 12.648438 -1.78125 14 -2.554688 14.8125 -4.109375 L 17.4375 -4.125 C 17.164062 -2.875 16.394531 -1.8125 15.125 -0.9375 C 13.851562 -0.0703125 12.140625 0.359375 9.984375 0.359375 C 7.828125 0.359375 5.960938 -0.3125 4.390625 -1.65625 C 2.515625 -3.257812 1.578125 -5.519531 1.578125 -8.4375 C 1.578125 -11.351562 2.320312 -13.703125 3.8125 -15.484375 C 5.3125 -17.273438 7.457031 -18.171875 10.25 -18.171875 C 13.914062 -18.171875 16.289062 -16.695312 17.375 -13.75 C 17.800781 -12.5625 18.015625 -11.441406 18.015625 -10.390625 C 18.015625 -9.335938 18.003906 -8.578125 17.984375 -8.109375 Z M 13.921875 -10.734375 C 13.921875 -14.328125 12.703125 -16.125 10.265625 -16.125 C 8.890625 -16.125 7.816406 -15.585938 7.046875 -14.515625 C 6.285156 -13.453125 5.867188 -11.976562 5.796875 -10.09375 L 13.90625 -10.09375 C 13.914062 -10.3125 13.921875 -10.523438 13.921875 -10.734375 Z M 13.921875 -10.734375 "/></g></g></g><g fill="#fff4ea" fill-opacity="1"><g transform="translate(169.687753, 318.056259)"><g><path d="M 2.328125 -14.015625 C 2.046875 -14.722656 1.75 -15.210938 1.4375 -15.484375 C 1.132812 -15.753906 0.59375 -15.890625 -0.1875 -15.890625 L -0.1875 -17.828125 L 8.6875 -17.828125 L 8.6875 -15.890625 C 7.457031 -15.890625 6.710938 -15.78125 6.453125 -15.5625 C 6.203125 -15.34375 6.078125 -15.113281 6.078125 -14.875 C 6.085938 -14.644531 6.160156 -14.359375 6.296875 -14.015625 L 9.703125 -4.453125 L 14.234375 -17.828125 L 16.78125 -17.828125 L 21.21875 -4.0625 L 24.5625 -14.015625 C 24.800781 -14.691406 24.71875 -15.171875 24.3125 -15.453125 C 23.90625 -15.742188 23.046875 -15.890625 21.734375 -15.890625 L 21.734375 -17.828125 L 29.75 -17.828125 L 29.75 -15.890625 C 28.96875 -15.890625 28.375 -15.738281 27.96875 -15.4375 C 27.570312 -15.132812 27.257812 -14.660156 27.03125 -14.015625 L 22.171875 0 L 19.203125 0 L 14.8125 -12.046875 L 10.734375 0 L 7.765625 0 Z M 2.328125 -14.015625 "/></g></g></g><g fill="#fff4ea" fill-opacity="1"><g transform="translate(198.463852, 318.056259)"><g><path d="M 1.578125 -9 C 1.578125 -10.40625 1.796875 -11.703125 2.234375 -12.890625 C 2.679688 -14.078125 3.296875 -15.066406 4.078125 -15.859375 C 5.628906 -17.398438 7.6875 -18.171875 10.25 -18.171875 C 12.84375 -18.171875 14.929688 -17.394531 16.515625 -15.84375 C 18.097656 -14.289062 18.890625 -12.085938 18.890625 -9.234375 C 18.890625 -6.378906 18.15625 -4.066406 16.6875 -2.296875 C 15.226562 -0.523438 13.082031 0.359375 10.25 0.359375 C 7.414062 0.359375 5.257812 -0.5 3.78125 -2.21875 C 2.3125 -3.9375 1.578125 -6.195312 1.578125 -9 Z M 10.25 -1.765625 C 11.601562 -1.765625 12.707031 -2.382812 13.5625 -3.625 C 14.414062 -4.863281 14.84375 -6.609375 14.84375 -8.859375 C 14.84375 -12.484375 13.925781 -14.742188 12.09375 -15.640625 C 11.53125 -15.921875 10.914062 -16.0625 10.25 -16.0625 C 8.082031 -16.0625 6.671875 -14.75 6.015625 -12.125 C 5.773438 -11.226562 5.65625 -10.175781 5.65625 -8.96875 C 5.65625 -6.644531 6.078125 -4.863281 6.921875 -3.625 C 7.773438 -2.382812 8.882812 -1.765625 10.25 -1.765625 Z M 10.25 -1.765625 "/></g></g></g><g fill="#fff4ea" fill-opacity="1"><g transform="translate(218.222373, 318.056259)"><g><path d="M 1.4375 -1.9375 C 2.445312 -1.9375 3.082031 -2.035156 3.34375 -2.234375 C 3.601562 -2.441406 3.757812 -2.660156 3.8125 -2.890625 C 3.863281 -3.128906 3.890625 -3.425781 3.890625 -3.78125 L 3.890625 -13.46875 C 3.890625 -14.3125 3.816406 -14.859375 3.671875 -15.109375 C 3.523438 -15.367188 3.128906 -15.5 2.484375 -15.5 L 1.40625 -15.5 L 1.40625 -17.4375 C 2.519531 -17.4375 3.382812 -17.519531 4 -17.6875 C 4.613281 -17.863281 5.050781 -17.988281 5.3125 -18.0625 C 5.582031 -18.132812 5.867188 -18.171875 6.171875 -18.171875 C 6.765625 -18.171875 7.164062 -17.992188 7.375 -17.640625 C 7.582031 -17.296875 7.6875 -16.722656 7.6875 -15.921875 L 7.6875 -15.578125 C 8.6875 -16.753906 9.828125 -17.550781 11.109375 -17.96875 C 11.566406 -18.101562 12.023438 -18.171875 12.484375 -18.171875 C 13.359375 -18.171875 14.039062 -17.921875 14.53125 -17.421875 C 15.019531 -16.921875 15.265625 -16.300781 15.265625 -15.5625 C 15.265625 -14.820312 15.03125 -14.21875 14.5625 -13.75 C 14.09375 -13.28125 13.519531 -13.046875 12.84375 -13.046875 C 12.1875 -13.046875 11.644531 -13.28125 11.21875 -13.75 C 10.789062 -14.21875 10.601562 -14.800781 10.65625 -15.5 C 10.175781 -15.4375 9.660156 -15.21875 9.109375 -14.84375 C 8.566406 -14.476562 8.09375 -13.976562 7.6875 -13.34375 L 7.6875 -3.9375 C 7.6875 -3.488281 7.722656 -3.132812 7.796875 -2.875 C 7.867188 -2.613281 8.070312 -2.390625 8.40625 -2.203125 C 8.738281 -2.023438 9.742188 -1.9375 11.421875 -1.9375 L 11.421875 0 L 1.4375 0 Z M 1.4375 -1.9375 "/></g></g></g><g fill="#fff4ea" fill-opacity="1"><g transform="translate(233.269956, 318.056259)"><g><path d="M 19.015625 -2.296875 C 19.828125 -2.296875 20.234375 -3.160156 20.234375 -4.890625 L 21.9375 -4.890625 C 22.019531 -4.515625 22.0625 -4.179688 22.0625 -3.890625 C 22.0625 -3.609375 22.054688 -3.289062 22.046875 -2.9375 C 22.035156 -2.582031 21.90625 -2.128906 21.65625 -1.578125 C 21.050781 -0.285156 19.898438 0.359375 18.203125 0.359375 C 16.503906 0.359375 15.140625 -0.609375 14.109375 -2.546875 C 13.816406 -3.097656 13.53125 -3.65625 13.25 -4.21875 C 12.488281 -5.769531 11.859375 -6.828125 11.359375 -7.390625 C 10.492188 -8.335938 9.441406 -8.8125 8.203125 -8.8125 C 8.109375 -8.8125 8.015625 -8.8125 7.921875 -8.8125 C 7.828125 -8.8125 7.734375 -8.804688 7.640625 -8.796875 L 7.640625 -3.8125 C 7.640625 -3.082031 7.796875 -2.585938 8.109375 -2.328125 C 8.421875 -2.066406 9.140625 -1.9375 10.265625 -1.9375 L 10.265625 0 L 1.171875 0 L 1.171875 -1.9375 C 2.191406 -1.9375 2.890625 -2.078125 3.265625 -2.359375 C 3.648438 -2.640625 3.84375 -3.125 3.84375 -3.8125 L 3.84375 -22.859375 C 3.84375 -23.703125 3.769531 -24.25 3.625 -24.5 C 3.476562 -24.757812 3.078125 -24.890625 2.421875 -24.890625 L 1 -24.890625 L 1 -26.828125 C 2.1875 -26.828125 3.113281 -26.910156 3.78125 -27.078125 C 4.445312 -27.242188 4.921875 -27.363281 5.203125 -27.4375 C 5.492188 -27.519531 5.800781 -27.5625 6.125 -27.5625 C 6.726562 -27.5625 7.128906 -27.382812 7.328125 -27.03125 C 7.535156 -26.6875 7.640625 -26.113281 7.640625 -25.3125 L 7.640625 -10.703125 L 8.546875 -10.703125 C 10.472656 -12.066406 12.160156 -13.523438 13.609375 -15.078125 C 13.835938 -15.328125 14.015625 -15.539062 14.140625 -15.71875 L 11.09375 -15.71875 L 11.09375 -17.828125 L 20.796875 -17.828125 L 20.796875 -15.71875 C 18.617188 -15.65625 16.382812 -14.613281 14.09375 -12.59375 C 13.40625 -11.988281 12.71875 -11.347656 12.03125 -10.671875 C 13.945312 -9.941406 15.503906 -8.316406 16.703125 -5.796875 C 16.992188 -5.171875 17.257812 -4.59375 17.5 -4.0625 C 17.75 -3.539062 17.988281 -3.113281 18.21875 -2.78125 C 18.457031 -2.457031 18.722656 -2.296875 19.015625 -2.296875 Z M 19.015625 -2.296875 "/></g></g></g><g fill="#fff4ea" fill-opacity="1"><g transform="translate(254.821445, 318.056259)"><g><path d="M 11.21875 -15.484375 C 10.613281 -16.085938 9.628906 -16.390625 8.265625 -16.390625 C 6.910156 -16.390625 5.992188 -15.894531 5.515625 -14.90625 C 5.390625 -14.625 5.328125 -14.300781 5.328125 -13.9375 C 5.328125 -13.582031 5.46875 -13.238281 5.75 -12.90625 C 6.03125 -12.570312 6.390625 -12.253906 6.828125 -11.953125 C 7.273438 -11.660156 7.773438 -11.375 8.328125 -11.09375 C 8.890625 -10.8125 9.46875 -10.503906 10.0625 -10.171875 C 10.664062 -9.847656 11.300781 -9.503906 11.96875 -9.140625 C 14.414062 -7.804688 15.640625 -6.328125 15.640625 -4.703125 C 15.640625 -3.078125 15.003906 -1.828125 13.734375 -0.953125 C 12.472656 -0.078125 10.796875 0.359375 8.703125 0.359375 C 6.617188 0.359375 4.894531 -0.015625 3.53125 -0.765625 C 2.175781 -1.523438 1.5 -2.492188 1.5 -3.671875 C 1.5 -4.316406 1.710938 -4.863281 2.140625 -5.3125 C 2.566406 -5.757812 3.109375 -5.984375 3.765625 -5.984375 C 4.429688 -5.984375 4.976562 -5.773438 5.40625 -5.359375 C 5.84375 -4.941406 6.0625 -4.441406 6.0625 -3.859375 C 6.0625 -3.285156 5.863281 -2.800781 5.46875 -2.40625 C 6.40625 -1.863281 7.566406 -1.59375 8.953125 -1.59375 C 10.347656 -1.59375 11.328125 -1.914062 11.890625 -2.5625 C 12.117188 -2.820312 12.234375 -3.15625 12.234375 -3.5625 C 12.234375 -4.539062 11.15625 -5.554688 9 -6.609375 C 7.5 -7.347656 6.375 -7.925781 5.625 -8.34375 C 3.21875 -9.707031 2.015625 -11.347656 2.015625 -13.265625 C 2.015625 -14.742188 2.628906 -15.925781 3.859375 -16.8125 C 5.085938 -17.707031 6.648438 -18.15625 8.546875 -18.15625 C 10.441406 -18.15625 12.035156 -17.800781 13.328125 -17.09375 C 14.628906 -16.382812 15.28125 -15.46875 15.28125 -14.34375 C 15.28125 -13.6875 15.117188 -13.203125 14.796875 -12.890625 C 14.242188 -12.335938 13.71875 -12.0625 13.21875 -12.0625 C 12.394531 -12.0625 11.773438 -12.269531 11.359375 -12.6875 C 10.941406 -13.101562 10.734375 -13.578125 10.734375 -14.109375 C 10.734375 -14.648438 10.894531 -15.109375 11.21875 -15.484375 Z M 11.21875 -15.484375 "/></g></g></g><g fill="#ffc61a" fill-opacity="1"><g transform="translate(117.539059, 358.449996)"><g><path d="M 0.875 -8.421875 C 0.875 -9.847656 1.085938 -11.113281 1.515625 -12.21875 C 1.953125 -13.320312 2.539062 -14.234375 3.28125 -14.953125 C 4.726562 -16.367188 6.570312 -17.078125 8.8125 -17.078125 C 11.0625 -17.078125 12.910156 -16.378906 14.359375 -14.984375 C 15.953125 -13.441406 16.75 -11.269531 16.75 -8.46875 C 16.75 -5.675781 16.015625 -3.53125 14.546875 -2.03125 C 13.078125 -0.53125 11.164062 0.21875 8.8125 0.21875 C 6.46875 0.21875 4.554688 -0.535156 3.078125 -2.046875 C 1.609375 -3.566406 0.875 -5.691406 0.875 -8.421875 Z M 8.84375 -1.234375 C 10.15625 -1.234375 11.257812 -1.722656 12.15625 -2.703125 C 13.28125 -3.921875 13.84375 -5.785156 13.84375 -8.296875 C 13.84375 -10.804688 13.363281 -12.648438 12.40625 -13.828125 C 11.445312 -15.015625 10.238281 -15.609375 8.78125 -15.609375 C 7.332031 -15.609375 6.140625 -15.019531 5.203125 -13.84375 C 4.265625 -12.664062 3.796875 -10.894531 3.796875 -8.53125 C 3.796875 -5.144531 4.722656 -2.910156 6.578125 -1.828125 C 7.265625 -1.429688 8.019531 -1.234375 8.84375 -1.234375 Z M 8.84375 -1.234375 "/></g></g></g><g fill="#ffc61a" fill-opacity="1"><g transform="translate(135.164905, 358.449996)"><g><path d="M 7.890625 -9.921875 C 6.660156 -9.921875 5.660156 -9.539062 4.890625 -8.78125 L 4.890625 -2.421875 C 4.890625 -1.953125 4.96875 -1.65625 5.125 -1.53125 C 5.382812 -1.332031 5.878906 -1.234375 6.609375 -1.234375 L 6.609375 0 L 0.90625 0 L 0.90625 -1.234375 C 1.539062 -1.234375 1.941406 -1.296875 2.109375 -1.421875 C 2.273438 -1.554688 2.375 -1.695312 2.40625 -1.84375 C 2.445312 -2 2.46875 -2.191406 2.46875 -2.421875 L 2.46875 -8.53125 C 2.46875 -9.070312 2.421875 -9.425781 2.328125 -9.59375 C 2.234375 -9.757812 1.976562 -9.84375 1.5625 -9.84375 L 0.875 -9.84375 L 0.875 -11.078125 C 1.582031 -11.078125 2.132812 -11.128906 2.53125 -11.234375 C 2.9375 -11.347656 3.222656 -11.425781 3.390625 -11.46875 C 3.554688 -11.519531 3.738281 -11.546875 3.9375 -11.546875 C 4.332031 -11.546875 4.585938 -11.429688 4.703125 -11.203125 C 4.828125 -10.972656 4.890625 -10.609375 4.890625 -10.109375 C 5.691406 -10.785156 6.625 -11.242188 7.6875 -11.484375 C 8.03125 -11.554688 8.375 -11.59375 8.71875 -11.59375 C 11.144531 -11.59375 12.359375 -9.988281 12.359375 -6.78125 L 12.359375 -2.4375 C 12.359375 -1.945312 12.425781 -1.625 12.5625 -1.46875 C 12.707031 -1.3125 13.097656 -1.234375 13.734375 -1.234375 L 13.734375 0 L 8.421875 0 L 8.421875 -1.234375 C 9.097656 -1.234375 9.503906 -1.300781 9.640625 -1.4375 C 9.785156 -1.582031 9.867188 -1.726562 9.890625 -1.875 C 9.910156 -2.019531 9.921875 -2.207031 9.921875 -2.4375 L 9.921875 -6.640625 C 9.921875 -7.679688 9.828125 -8.394531 9.640625 -8.78125 C 9.253906 -9.539062 8.671875 -9.921875 7.890625 -9.921875 Z M 7.890625 -9.921875 "/></g></g></g><g fill="#ffc61a" fill-opacity="1"><g transform="translate(149.546248, 358.449996)"><g><path d="M 0.78125 -1.234375 C 1.4375 -1.234375 1.882812 -1.320312 2.125 -1.5 C 2.375 -1.6875 2.5 -2 2.5 -2.4375 L 2.5 -14.59375 C 2.5 -15.132812 2.453125 -15.488281 2.359375 -15.65625 C 2.265625 -15.820312 2.003906 -15.90625 1.578125 -15.90625 L 0.671875 -15.90625 L 0.671875 -17.140625 C 1.429688 -17.140625 2.023438 -17.191406 2.453125 -17.296875 C 2.878906 -17.410156 3.179688 -17.488281 3.359375 -17.53125 C 3.546875 -17.582031 3.738281 -17.609375 3.9375 -17.609375 C 4.332031 -17.609375 4.59375 -17.492188 4.71875 -17.265625 C 4.851562 -17.046875 4.921875 -16.679688 4.921875 -16.171875 L 4.921875 -2.4375 C 4.921875 -1.96875 5.019531 -1.648438 5.21875 -1.484375 C 5.414062 -1.316406 5.878906 -1.234375 6.609375 -1.234375 L 6.609375 0 L 0.78125 0 Z M 0.78125 -1.234375 "/></g></g></g><g fill="#ffc61a" fill-opacity="1"><g transform="translate(156.955839, 358.449996)"><g><path d="M 3.78125 -13.6875 C 3.300781 -13.6875 2.890625 -13.847656 2.546875 -14.171875 C 2.203125 -14.503906 2.03125 -14.90625 2.03125 -15.375 C 2.03125 -15.851562 2.203125 -16.257812 2.546875 -16.59375 C 2.890625 -16.925781 3.300781 -17.09375 3.78125 -17.09375 C 4.257812 -17.09375 4.671875 -16.925781 5.015625 -16.59375 C 5.359375 -16.257812 5.53125 -15.851562 5.53125 -15.375 C 5.53125 -14.90625 5.359375 -14.503906 5.015625 -14.171875 C 4.679688 -13.847656 4.269531 -13.6875 3.78125 -13.6875 Z M 0.921875 -1.234375 C 1.617188 -1.234375 2.054688 -1.296875 2.234375 -1.421875 C 2.410156 -1.554688 2.515625 -1.695312 2.546875 -1.84375 C 2.585938 -2 2.609375 -2.191406 2.609375 -2.421875 L 2.609375 -8.609375 C 2.609375 -9.140625 2.5625 -9.488281 2.46875 -9.65625 C 2.375 -9.820312 2.117188 -9.90625 1.703125 -9.90625 L 0.90625 -9.90625 L 0.90625 -11.140625 C 1.632812 -11.140625 2.207031 -11.191406 2.625 -11.296875 C 3.039062 -11.410156 3.335938 -11.488281 3.515625 -11.53125 C 3.691406 -11.582031 3.878906 -11.609375 4.078125 -11.609375 C 4.460938 -11.609375 4.71875 -11.492188 4.84375 -11.265625 C 4.96875 -11.035156 5.03125 -10.671875 5.03125 -10.171875 L 5.03125 -2.421875 C 5.03125 -1.941406 5.101562 -1.644531 5.25 -1.53125 C 5.507812 -1.332031 5.992188 -1.234375 6.703125 -1.234375 L 6.703125 0 L 0.921875 0 Z M 0.921875 -1.234375 "/></g></g></g><g fill="#ffc61a" fill-opacity="1"><g transform="translate(164.477697, 358.449996)"><g><path d="M 7.890625 -9.921875 C 6.660156 -9.921875 5.660156 -9.539062 4.890625 -8.78125 L 4.890625 -2.421875 C 4.890625 -1.953125 4.96875 -1.65625 5.125 -1.53125 C 5.382812 -1.332031 5.878906 -1.234375 6.609375 -1.234375 L 6.609375 0 L 0.90625 0 L 0.90625 -1.234375 C 1.539062 -1.234375 1.941406 -1.296875 2.109375 -1.421875 C 2.273438 -1.554688 2.375 -1.695312 2.40625 -1.84375 C 2.445312 -2 2.46875 -2.191406 2.46875 -2.421875 L 2.46875 -8.53125 C 2.46875 -9.070312 2.421875 -9.425781 2.328125 -9.59375 C 2.234375 -9.757812 1.976562 -9.84375 1.5625 -9.84375 L 0.875 -9.84375 L 0.875 -11.078125 C 1.582031 -11.078125 2.132812 -11.128906 2.53125 -11.234375 C 2.9375 -11.347656 3.222656 -11.425781 3.390625 -11.46875 C 3.554688 -11.519531 3.738281 -11.546875 3.9375 -11.546875 C 4.332031 -11.546875 4.585938 -11.429688 4.703125 -11.203125 C 4.828125 -10.972656 4.890625 -10.609375 4.890625 -10.109375 C 5.691406 -10.785156 6.625 -11.242188 7.6875 -11.484375 C 8.03125 -11.554688 8.375 -11.59375 8.71875 -11.59375 C 11.144531 -11.59375 12.359375 -9.988281 12.359375 -6.78125 L 12.359375 -2.4375 C 12.359375 -1.945312 12.425781 -1.625 12.5625 -1.46875 C 12.707031 -1.3125 13.097656 -1.234375 13.734375 -1.234375 L 13.734375 0 L 8.421875 0 L 8.421875 -1.234375 C 9.097656 -1.234375 9.503906 -1.300781 9.640625 -1.4375 C 9.785156 -1.582031 9.867188 -1.726562 9.890625 -1.875 C 9.910156 -2.019531 9.921875 -2.207031 9.921875 -2.4375 L 9.921875 -6.640625 C 9.921875 -7.679688 9.828125 -8.394531 9.640625 -8.78125 C 9.253906 -9.539062 8.671875 -9.921875 7.890625 -9.921875 Z M 7.890625 -9.921875 "/></g></g></g><g fill="#ffc61a" fill-opacity="1"><g transform="translate(178.859039, 358.449996)"><g><path d="M 11.484375 -5.171875 L 3.6875 -5.171875 C 3.6875 -3.890625 3.992188 -2.894531 4.609375 -2.1875 C 5.222656 -1.488281 5.976562 -1.140625 6.875 -1.140625 C 8.082031 -1.140625 8.945312 -1.632812 9.46875 -2.625 L 11.140625 -2.640625 C 10.960938 -1.835938 10.46875 -1.160156 9.65625 -0.609375 C 8.851562 -0.0546875 7.757812 0.21875 6.375 0.21875 C 5 0.21875 3.8125 -0.207031 2.8125 -1.0625 C 1.613281 -2.082031 1.015625 -3.523438 1.015625 -5.390625 C 1.015625 -7.253906 1.488281 -8.753906 2.4375 -9.890625 C 3.394531 -11.035156 4.765625 -11.609375 6.546875 -11.609375 C 8.890625 -11.609375 10.40625 -10.664062 11.09375 -8.78125 C 11.375 -8.019531 11.515625 -7.300781 11.515625 -6.625 C 11.515625 -5.957031 11.503906 -5.472656 11.484375 -5.171875 Z M 8.890625 -6.859375 C 8.890625 -9.148438 8.113281 -10.296875 6.5625 -10.296875 C 5.6875 -10.296875 5.003906 -9.953125 4.515625 -9.265625 C 4.023438 -8.585938 3.753906 -7.648438 3.703125 -6.453125 L 8.890625 -6.453125 C 8.890625 -6.585938 8.890625 -6.722656 8.890625 -6.859375 Z M 8.890625 -6.859375 "/></g></g></g><g fill="#ffc61a" fill-opacity="1"><g transform="translate(191.387985, 358.449996)"><g/></g></g><g fill="#ffc61a" fill-opacity="1"><g transform="translate(199.055789, 358.449996)"><g><path d="M 9.4375 -14.9375 C 9.039062 -15.457031 8.203125 -15.71875 6.921875 -15.71875 C 5.648438 -15.71875 4.773438 -15.289062 4.296875 -14.4375 C 4.128906 -14.144531 4.046875 -13.785156 4.046875 -13.359375 C 4.046875 -12.578125 4.394531 -11.859375 5.09375 -11.203125 C 5.5625 -10.773438 6.203125 -10.332031 7.015625 -9.875 C 7.835938 -9.414062 8.53125 -9.003906 9.09375 -8.640625 C 11.21875 -7.296875 12.28125 -5.820312 12.28125 -4.21875 C 12.28125 -2.800781 11.753906 -1.707031 10.703125 -0.9375 C 9.660156 -0.164062 8.3125 0.21875 6.65625 0.21875 C 5 0.21875 3.671875 -0.101562 2.671875 -0.75 C 1.671875 -1.40625 1.171875 -2.160156 1.171875 -3.015625 C 1.171875 -3.867188 1.507812 -4.441406 2.1875 -4.734375 C 2.394531 -4.835938 2.625 -4.890625 2.875 -4.890625 C 3.34375 -4.890625 3.726562 -4.726562 4.03125 -4.40625 C 4.34375 -4.09375 4.5 -3.695312 4.5 -3.21875 C 4.5 -2.738281 4.28125 -2.332031 3.84375 -2 C 4.425781 -1.414062 5.390625 -1.125 6.734375 -1.125 C 8.085938 -1.125 9.019531 -1.582031 9.53125 -2.5 C 9.707031 -2.8125 9.796875 -3.175781 9.796875 -3.59375 C 9.796875 -4.320312 9.421875 -4.992188 8.671875 -5.609375 C 8.285156 -5.929688 7.628906 -6.347656 6.703125 -6.859375 C 5.773438 -7.378906 5.046875 -7.8125 4.515625 -8.15625 C 2.554688 -9.414062 1.578125 -10.894531 1.578125 -12.59375 C 1.578125 -13.925781 2.082031 -15.003906 3.09375 -15.828125 C 4.101562 -16.660156 5.347656 -17.078125 6.828125 -17.078125 C 8.316406 -17.078125 9.535156 -16.753906 10.484375 -16.109375 C 11.441406 -15.472656 11.921875 -14.703125 11.921875 -13.796875 C 11.921875 -13.296875 11.769531 -12.878906 11.46875 -12.546875 C 11.164062 -12.210938 10.785156 -12.046875 10.328125 -12.046875 C 9.609375 -12.046875 9.113281 -12.359375 8.84375 -12.984375 C 8.757812 -13.171875 8.71875 -13.367188 8.71875 -13.578125 C 8.71875 -14.148438 8.957031 -14.601562 9.4375 -14.9375 Z M 9.4375 -14.9375 "/></g></g></g><g fill="#ffc61a" fill-opacity="1"><g transform="translate(212.381826, 358.449996)"><g><path d="M 5.609375 0.21875 C 3.242188 0.21875 2.0625 -1.085938 2.0625 -3.703125 L 2.0625 -9.328125 C 2.0625 -9.617188 2.023438 -9.8125 1.953125 -9.90625 C 1.890625 -10 1.738281 -10.046875 1.5 -10.046875 L 0.578125 -10.046875 L 0.578125 -11.390625 L 1 -11.390625 C 1.570312 -11.390625 1.988281 -11.566406 2.25 -11.921875 C 2.519531 -12.285156 2.664062 -12.878906 2.6875 -13.703125 L 2.703125 -14.703125 L 4.5 -14.703125 L 4.5 -11.390625 L 7.9375 -11.390625 L 7.9375 -10.046875 L 4.5 -10.046875 L 4.5 -3.734375 C 4.5 -2.347656 4.816406 -1.519531 5.453125 -1.25 C 5.640625 -1.175781 5.820312 -1.140625 6 -1.140625 C 6.78125 -1.140625 7.289062 -1.785156 7.53125 -3.078125 L 8.84375 -3.078125 C 8.757812 -1.546875 8.117188 -0.523438 6.921875 -0.015625 C 6.523438 0.140625 6.085938 0.21875 5.609375 0.21875 Z M 5.609375 0.21875 "/></g></g></g><g fill="#ffc61a" fill-opacity="1"><g transform="translate(221.778535, 358.449996)"><g><path d="M 1.015625 -5.75 C 1.015625 -6.644531 1.15625 -7.472656 1.4375 -8.234375 C 1.71875 -8.992188 2.109375 -9.625 2.609375 -10.125 C 3.597656 -11.113281 4.910156 -11.609375 6.546875 -11.609375 C 8.203125 -11.609375 9.535156 -11.113281 10.546875 -10.125 C 11.566406 -9.132812 12.078125 -7.726562 12.078125 -5.90625 C 12.078125 -4.082031 11.609375 -2.601562 10.671875 -1.46875 C 9.734375 -0.34375 8.359375 0.21875 6.546875 0.21875 C 4.734375 0.21875 3.359375 -0.328125 2.421875 -1.421875 C 1.484375 -2.515625 1.015625 -3.957031 1.015625 -5.75 Z M 6.546875 -1.125 C 7.410156 -1.125 8.113281 -1.519531 8.65625 -2.3125 C 9.207031 -3.101562 9.484375 -4.21875 9.484375 -5.65625 C 9.484375 -7.96875 8.898438 -9.414062 7.734375 -10 C 7.367188 -10.175781 6.972656 -10.265625 6.546875 -10.265625 C 5.160156 -10.265625 4.257812 -9.425781 3.84375 -7.75 C 3.6875 -7.175781 3.609375 -6.503906 3.609375 -5.734375 C 3.609375 -4.242188 3.878906 -3.101562 4.421875 -2.3125 C 4.972656 -1.519531 5.679688 -1.125 6.546875 -1.125 Z M 6.546875 -1.125 "/></g></g></g><g fill="#ffc61a" fill-opacity="1"><g transform="translate(234.857586, 358.449996)"><g><path d="M 0.921875 -1.234375 C 1.566406 -1.234375 1.96875 -1.296875 2.125 -1.421875 C 2.289062 -1.554688 2.390625 -1.695312 2.421875 -1.84375 C 2.460938 -2 2.484375 -2.191406 2.484375 -2.421875 L 2.484375 -8.609375 C 2.484375 -9.140625 2.4375 -9.488281 2.34375 -9.65625 C 2.25 -9.820312 1.992188 -9.90625 1.578125 -9.90625 L 0.90625 -9.90625 L 0.90625 -11.140625 C 1.613281 -11.140625 2.160156 -11.191406 2.546875 -11.296875 C 2.941406 -11.410156 3.222656 -11.488281 3.390625 -11.53125 C 3.566406 -11.582031 3.75 -11.609375 3.9375 -11.609375 C 4.320312 -11.609375 4.578125 -11.492188 4.703125 -11.265625 C 4.835938 -11.046875 4.90625 -10.679688 4.90625 -10.171875 L 4.90625 -9.953125 C 5.550781 -10.703125 6.28125 -11.210938 7.09375 -11.484375 C 7.382812 -11.566406 7.675781 -11.609375 7.96875 -11.609375 C 8.53125 -11.609375 8.96875 -11.445312 9.28125 -11.125 C 9.59375 -10.800781 9.75 -10.40625 9.75 -9.9375 C 9.75 -9.46875 9.597656 -9.082031 9.296875 -8.78125 C 8.992188 -8.476562 8.628906 -8.328125 8.203125 -8.328125 C 7.785156 -8.328125 7.441406 -8.476562 7.171875 -8.78125 C 6.898438 -9.082031 6.78125 -9.457031 6.8125 -9.90625 C 6.5 -9.863281 6.164062 -9.722656 5.8125 -9.484375 C 5.46875 -9.242188 5.164062 -8.925781 4.90625 -8.53125 L 4.90625 -2.515625 C 4.90625 -2.234375 4.925781 -2.003906 4.96875 -1.828125 C 5.019531 -1.660156 5.148438 -1.519531 5.359375 -1.40625 C 5.578125 -1.289062 6.222656 -1.234375 7.296875 -1.234375 L 7.296875 0 L 0.921875 0 Z M 0.921875 -1.234375 "/></g></g></g><g fill="#ffc61a" fill-opacity="1"><g transform="translate(244.927894, 358.449996)"><g><path d="M 11.484375 -5.171875 L 3.6875 -5.171875 C 3.6875 -3.890625 3.992188 -2.894531 4.609375 -2.1875 C 5.222656 -1.488281 5.976562 -1.140625 6.875 -1.140625 C 8.082031 -1.140625 8.945312 -1.632812 9.46875 -2.625 L 11.140625 -2.640625 C 10.960938 -1.835938 10.46875 -1.160156 9.65625 -0.609375 C 8.851562 -0.0546875 7.757812 0.21875 6.375 0.21875 C 5 0.21875 3.8125 -0.207031 2.8125 -1.0625 C 1.613281 -2.082031 1.015625 -3.523438 1.015625 -5.390625 C 1.015625 -7.253906 1.488281 -8.753906 2.4375 -9.890625 C 3.394531 -11.035156 4.765625 -11.609375 6.546875 -11.609375 C 8.890625 -11.609375 10.40625 -10.664062 11.09375 -8.78125 C 11.375 -8.019531 11.515625 -7.300781 11.515625 -6.625 C 11.515625 -5.957031 11.503906 -5.472656 11.484375 -5.171875 Z M 8.890625 -6.859375 C 8.890625 -9.148438 8.113281 -10.296875 6.5625 -10.296875 C 5.6875 -10.296875 5.003906 -9.953125 4.515625 -9.265625 C 4.023438 -8.585938 3.753906 -7.648438 3.703125 -6.453125 L 8.890625 -6.453125 C 8.890625 -6.585938 8.890625 -6.722656 8.890625 -6.859375 Z M 8.890625 -6.859375 "/></g></g></g></svg>